<svg xmlns="http://www.w3.org/2000/svg" fill="none" viewBox="0 0 52 52" id="Playwright--Streamline-Svg-Logos" height="52" width="52">
  <desc>
    Playwright Streamline Icon: https://streamlinehq.com
  </desc>
  <path fill="#2d4552" d="M17.324341666666665 28.473737499999995c-1.9007083333333332 0.5394458333333333 -3.1476791666666664 1.485195833333333 -3.9691166666666664 2.4302416666666664 0.7867708333333332 -0.6885124999999999 1.8406375 -1.3204208333333332 3.2622958333333334 -1.7234208333333334 1.45405 -0.41209999999999997 2.6945208333333333 -0.40912083333333327 3.7195166666666664 -0.21135833333333331v-0.8015041666666666c-0.8743583333333333 -0.07995 -1.8768208333333332 -0.016249999999999997 -3.012695833333333 0.3060416666666666Zm-4.056 -6.737845833333333 -7.058891666666667 1.8597041666666665s0.12864583333333332 0.18172916666666666 0.3668166666666667 0.42417916666666666l5.9850916666666665 -1.5770625s-0.08482499999999998 1.0928666666666664 -0.8213291666666666 2.0704666666666665c1.3931666666666667 -1.0540291666666666 1.5283124999999997 -2.7772875 1.5283124999999997 -2.7772875Zm5.908770833333333 16.589624999999998C9.243324999999999 41.00107916666666 3.9877120833333333 29.488875 2.396522916666666 23.5135875c-0.73515 -2.7581666666666664 -1.0560658333333333 -4.847049999999999 -1.1416004166666665 -6.195095833333332 -0.009192083333333332 -0.13996666666666666 -0.004945416666666666 -0.2579416666666667 0.004950833333333333 -0.36605833333333326 -0.5153091666666666 0.031091666666666663 -0.7620199166666666 0.2989458333333333 -0.7118258333333334 1.0730416666666667 0.08553458333333333 1.3472874999999997 0.40645583333333335 3.4360625 1.1416058333333332 6.195095833333332C3.280132916666666 30.194937499999998 8.53645 41.707141666666665 18.470291666666665 39.03163333333333c2.162225 -0.5825083333333333 3.7866291666666667 -1.6434708333333332 5.006029166666666 -2.9978541666666665 -1.1239583333333334 1.0151375 -2.5306666666666664 1.8145833333333332 -4.2992083333333335 2.2917375Zm1.866745833333333 -23.635191666666664v0.7069833333333332h3.8964249999999994c-0.07995 -0.25030416666666666 -0.16049583333333334 -0.4758541666666666 -0.24044583333333333 -0.7069833333333332h-3.6559791666666666Z" stroke-width="0.5417"></path>
  <path fill="#2d4552" d="M25.811283333333332 20.512591666666665c1.7522916666666666 0.4976291666666666 2.679083333333333 1.7261833333333332 3.1689125 2.8134166666666665l1.9537916666666666 0.5548833333333333s-0.26649999999999996 -3.8050458333333332 -3.7083041666666663 -4.782699999999999c-3.2198291666666665 -0.9148208333333333 -5.201245833333333 1.7890166666666665 -5.442233333333333 2.138933333333333 0.93665 -0.6673333333333333 2.3044124999999998 -1.2136583333333333 4.027833333333333 -0.7245333333333333Zm15.5527125 2.8309666666666664c-3.2227541666666664 -0.9189374999999999 -5.203412499999999 1.7905333333333333 -5.440879166666667 2.135520833333333 0.9373541666666666 -0.6665208333333332 2.3044124999999998 -1.2130625 4.027075 -0.7217166666666667 1.749475 0.4984416666666666 2.675508333333333 1.7254791666666667 3.1668541666666665 2.813470833333333l1.9566083333333333 0.5569416666666667s-0.2708333333333333 -3.805804166666666 -3.709658333333333 -4.784216666666667Zm-1.9411166666666666 10.032749999999998 -16.253195833333333 -4.543770833333333s0.1759333333333333 0.8920708333333333 0.8510666666666665 2.0471749999999997l13.68445 3.8256291666666664c1.1266124999999998 -0.6518416666666667 1.7176791666666666 -1.329033333333333 1.7176791666666666 -1.329033333333333ZM28.154479166666665 43.15669583333333C15.285129166666664 39.70633333333333 16.840958333333333 23.309054166666666 18.92339583333333 15.538954166666667c0.8574041666666666 -3.2021166666666665 1.7389124999999999 -5.582145833333333 2.4698916666666664 -7.177570833333332 -0.43615 -0.08975416666666665 -0.7973874999999999 0.13996666666666666 -1.1543458333333332 0.8659083333333333 -0.7761541666666667 1.5742458333333331 -1.7686499999999998 4.137358333333333 -2.7291874999999997 7.725466666666666 -2.0818416666666666 7.769937499999999 -3.6377249999999997 24.166674999999998 9.231083333333334 27.6170375 6.065691666666666 1.625 10.791029166666666 -0.8447833333333333 14.313541666666666 -4.723441666666666 -3.343545833333333 3.0283499999999997 -7.612420833333332 4.726204166666666 -12.899899999999999 3.310341666666666Z" stroke-width="0.5417"></path>
  <path fill="#e2574c" d="M21.043966666666666 34.48287916666666V31.173999999999996l-9.193545833333333 2.606933333333333s0.6793041666666666 -3.9471249999999998 5.474029166666666 -5.30725c1.45405 -0.41209999999999997 2.6946833333333333 -0.40928333333333333 3.7195166666666664 -0.21135833333333331V14.690270833333333h4.603245833333333c-0.5012041666666667 -1.5487875 -0.98605 -2.741158333333333 -1.3932749999999998 -3.5696916666666665 -0.6736708333333333 -1.3713374999999999 -1.3642416666666666 -0.4622583333333333 -2.9320416666666667 0.8490083333333333 -1.1042416666666668 0.9225125 -3.8949624999999997 2.8904416666666664 -8.09445 4.022091666666666 -4.199595833333333 1.1323541666666666 -7.594708333333333 0.8320541666666667 -9.011296666666667 0.5867333333333332 -2.0082454166666666 -0.3464499999999999 -3.0586670833333334 -0.7874749999999999 -2.9603979166666665 0.740025 0.08551833333333332 1.3472874999999997 0.40645583333333335 3.436225 1.1416004166666665 6.195095833333332C3.987820416666666 29.488062499999998 9.244137499999999 41.00026666666667 19.177925 38.32475833333333c2.5948541666666665 -0.6991833333333333 4.426391666666666 -2.0811374999999996 5.695949999999999 -3.8425833333333332h-3.829908333333333v0.0007041666666666666ZM6.208854166666667 23.595541666666666l7.059595833333333 -1.8597041666666665s-0.20577916666666665 2.715808333333333 -2.852308333333333 3.4134749999999996c-2.6472333333333333 0.6969624999999999 -4.2072875 -1.5537708333333333 -4.2072875 -1.5537708333333333Z" stroke-width="0.5417"></path>
  <path fill="#2ead33" d="M47.6126625 14.847083333333332c-1.8350583333333332 0.3216958333333333 -6.237562499999999 0.722475 -11.678279166666666 -0.7358541666666666 -5.442233333333333 -1.4574624999999999 -9.053091666666665 -4.006545833333333 -10.4836875 -5.2047125 -2.028 -1.6986124999999999 -2.9200708333333334 -2.879120833333333 -3.7980041666666664 -1.0935166666666667 -0.7761541666666667 1.5748958333333334 -1.7687041666666665 4.138062499999999 -2.7294041666666664 7.726170833333333 -2.0816791666666665 7.769937499999999 -3.637508333333333 24.166674999999998 9.2311375 27.61698333333333 12.8659375 3.4474374999999995 19.715474999999998 -11.531379166666666 21.797316666666664 -19.302020833333334 0.9607 -3.587404166666666 1.3819541666666666 -6.303916666666666 1.4978708333333333 -8.055504166666667 0.13216666666666665 -1.9841791666666666 -1.2307208333333333 -1.408225 -3.8369499999999994 -0.9515458333333332ZM21.757233333333332 21.275474999999997s2.028 -3.154125 5.4676374999999995 -2.176525c3.4418041666666666 0.9776541666666666 3.7083041666666663 4.782754166666667 3.7083041666666663 4.782754166666667l-9.175941666666667 -2.606229166666666ZM30.153499999999998 35.42933333333333c-6.050091666666666 -1.7722791666666666 -6.983166666666666 -6.596741666666666 -6.983166666666666 -6.596741666666666l16.2524375 4.5439333333333325c0 -0.0007583333333333333 -3.28055 3.802879166666666 -9.269270833333334 2.052808333333333Zm5.746216666666666 -9.914775s2.025183333333333 -3.151958333333333 5.464170833333333 -2.1715416666666667c3.4388791666666663 0.9791166666666666 3.709658333333333 4.784216666666667 3.709658333333333 4.784216666666667l-9.173829166666666 -2.612675Z" stroke-width="0.5417"></path>
  <path fill="#d65348" d="M17.83145 32.085137499999995 11.850583333333333 33.780229166666665s0.649675 -3.7011541666666665 5.055591666666666 -5.167879166666666l-3.3866625 -12.709612499999999 -0.2926625 0.08894166666666667c-4.199541666666667 1.1325166666666666 -7.594654166666666 0.8320541666666667 -9.011231666666665 0.5867333333333332 -2.008234583333333 -0.34628749999999997 -3.058650833333333 -0.7874749999999999 -2.9603979166666665 0.7401875 0.08553458333333333 1.3472874999999997 0.40645583333333335 3.4360625 1.1416004166666665 6.195041666666666 1.5904795833333332 5.974420833333333 6.846829166666666 17.486625 16.7805625 14.811116666666665l0.2926625 -0.09192083333333333 -1.6385958333333333 -6.1476999999999995ZM6.209016666666666 23.59565l7.059595833333333 -1.8598124999999999s-0.20577916666666665 2.715808333333333 -2.8522541666666665 3.4134749999999996c-2.6472874999999996 0.6969624999999999 -4.207341666666666 -1.5536625 -4.207341666666666 -1.5536625Z" stroke-width="0.5417"></path>
  <path fill="#1d8d22" d="m30.426391666666664 35.4956875 -0.27364999999999995 -0.06651666666666667c-6.050037499999999 -1.7721166666666666 -6.983166666666666 -6.596579166666666 -6.983166666666666 -6.596579166666666l8.380775 2.3425999999999996 4.436954166666666 -17.049825 -0.05367916666666666 -0.0141375c-5.442233333333333 -1.4574624999999999 -9.052875 -4.006545833333333 -10.4836875 -5.2047125 -2.028 -1.6986124999999999 -2.9200708333333334 -2.879120833333333 -3.7980041666666664 -1.0935166666666667 -0.7753958333333333 1.5748958333333334 -1.7679458333333333 4.138062499999999 -2.7286458333333328 7.726170833333333 -2.0816791666666665 7.769937499999999 -3.637508333333333 24.166674999999998 9.2311375 27.616874999999997l0.26373749999999996 0.05942083333333333 2.0082291666666667 -7.719779166666665ZM21.757233333333332 21.275529166666665s2.028 -3.1541791666666668 5.4676374999999995 -2.1765791666666665c3.4418041666666666 0.9776541666666666 3.7083041666666663 4.782754166666667 3.7083041666666663 4.782754166666667l-9.175941666666667 -2.606175Z" stroke-width="0.5417"></path>
  <path fill="#c04b41" d="m18.136191666666665 31.99798333333333 -1.6039291666666666 0.45521666666666666c0.3788958333333333 2.1361166666666667 1.0467708333333334 4.186108333333333 2.0951125 5.997116666666666 0.1824333333333333 -0.040299999999999996 0.3634041666666667 -0.07491249999999999 0.54925 -0.12582916666666666 0.48706666666666665 -0.13140833333333332 0.9387083333333334 -0.294125 1.3735583333333332 -0.47157499999999997 -1.1712999999999998 -1.7381541666666664 -1.9461541666666666 -3.7400458333333333 -2.4139916666666665 -5.8549291666666665Zm-0.6263291666666667 -15.045116666666667c-0.8241999999999999 3.0762874999999994 -1.5615708333333331 7.504141666666666 -1.3586083333333332 11.945375 0.36329583333333326 -0.15767916666666668 0.7470666666666667 -0.3045791666666667 1.1733583333333333 -0.42553333333333326l0.29694166666666666 -0.06635416666666666c-0.3619958333333333 -4.743970833333333 0.4204958333333333 -9.578183333333333 1.3020041666666666 -12.867291666666665 0.22343749999999998 -0.8320541666666667 0.44747083333333326 -1.6059875 0.6708 -2.327758333333333 -0.3597208333333333 0.22896249999999999 -0.7470666666666667 0.4636125 -1.1882541666666666 0.7053583333333333 -0.2975375 0.9183416666666666 -0.598 1.9221041666666667 -0.8962416666666666 3.0362041666666664Z" stroke-width="0.5417"></path>
</svg>