<?xml version="1.0" ?><svg xmlns="http://www.w3.org/2000/svg" id="Agile" viewBox="0 0 64 64"><polygon points="63 47 50 38 50 43 16 43 16 51 50 51 50 56 63 47" style="fill:#45a9f4; stroke-width:0px;"/><path d="M19.25,43l3,4-3,4h15.59320068c3.55383301-1.9239502,6.56341553-4.69006348,8.81323242-8h-24.40643311Z" style="fill:#2995e5; stroke-width:0px;"/><path d="M44.90368652,26.91357422c-.98388672-10.67828369-9.80334473-19.20898438-20.50653076-19.87036133C11.61419678,6.25335693,1,16.38745117,1,29c0,5.32000732,1.88000488,10.20001221,5.02001953,14H2c-.55230713,0-1,.44769287-1,1v6c0,.55224609.44769287,1,1,1h21c1.02001953,0,2.02001953-.07000732,3-.21002197,11.39379883-1.550354,20.01379395-11.82788086,18.90368652-23.87640381Z" style="fill:#68ddc1; stroke-width:0px;"/><path d="M23,43H6.02001953c-.5300293-.64001465-1.02001953-1.29998779-1.47003174-2-2.25-3.45001221-3.54998779-7.57000732-3.54998779-12l4,3,4-3c0,5.08996582,2.7199707,9.54998779,6.78997803,12,2.11004639,1.2699585,4.58001709,2,7.21002197,2Z" style="fill:#ff6c9d; stroke-width:0px;"/><path d="M45,29c0,11.13000488-8.27001953,20.32995605-19,21.78997803-.97998047.14001465-1.97998047.21002197-3,.21002197l3-4-3-4c7.72998047,0,14-6.27001953,14-14l4-3,4,3Z" style="fill:#64c4ff; stroke-width:0px;"/><path d="M45,29l-4-3-4,3c0-7.7300415-6.27001953-14-14-14l-3-4,3-4c12.15002441,0,22,9.84997559,22,22Z" style="fill:#ffe094; stroke-width:0px;"/><path d="M20,11l3,4c-7.72998047,0-14,6.2699585-14,14l-4,3-4-3C1,16.84997559,10.84997559,7,23,7l-3,4Z" style="fill:#f45687; stroke-width:0px;"/><circle cx="23" cy="29" r="14" style="fill:#d9ecff; stroke-width:0px;"/><path d="M23,20c-4.96274414,0-9,4.03725586-9,9s4.03725586,9,9,9,9-4.03725586,9-9-4.03725586-9-9-9Z" style="fill:#b9d8f9; stroke-width:0px;"/><path d="M63.56933594,46.17773438l-13-9c-.30615234-.2109375-.70458984-.23632812-1.03320312-.06347656-.32958984.17236328-.53613281.51367188-.53613281.88574219v4h-5.33007812c-.55224609,0-1,.44775391-1,1s.44775391,1,1,1h6.33007812c.55224609,0,1-.44775391,1-1v-3.09130859l10.24316406,7.09130859-10.24316406,7.09130859v-3.09130859c0-.55224609-.44775391-1-1-1h-15.16015625c-.55224609,0-1,.44775391-1,1s.44775391,1,1,1h14.16015625v4c0,.37207031.20654297.71337891.53613281.88574219.14550781.07666016.30517578.11425781.46386719.11425781.19970703,0,.39892578-.06005859.56933594-.17773438l13-9c.26953125-.18701172.43066406-.49414062.43066406-.82226562s-.16113281-.63525391-.43066406-.82226562Z" style="fill:#393e4c; stroke-width:0px;"/><path d="M46,29c0-12.68212891-10.31787109-23-23-23S0,16.31787109,0,29c0,4.03173828,1.05908203,8.0078125,3.06298828,11.49804688.27490234.47900391.88525391.64453125,1.36523438.36914062.47900391-.27490234.64404297-.88623047.36914062-1.36523438-1.48297119-2.58294678-2.38830566-5.45874023-2.68255615-8.41595459l2.28509521,1.71380615c.17773438.13330078.38916016.20019531.60009766.20019531s.42236328-.06689453.60009766-.20019531l2.52844238-1.89630127c.49066162,3.88909912,2.46655273,7.41943359,5.60388184,9.88311768.43408203.33935547,1.06201172.26464844,1.40429688-.16894531.34082031-.43457031.26513672-1.06298828-.16894531-1.40429688-3.15722656-2.47900391-4.96777344-6.20166016-4.96777344-10.21337891,0-7.16845703,5.83154297-13,13-13s13,5.83154297,13,13-5.83154297,13-13,13H1c-.55224609,0-1,.44775391-1,1v8c0,.55224609.44775391,1,1,1h22c1.06347656,0,2.12060547-.07421875,3.13476562-.21923828,11.32519531-1.54101562,19.86523438-11.33447266,19.86523438-22.78076172ZM8.02630615,28.48034668l-3.02630615,2.26965332-2.97558594-2.23156738c.24346924-10.65795898,8.44824219-19.38122559,18.89672852-20.41308594l-1.72094727,2.29455566c-.26708984.35546875-.26708984.84472656,0,1.20019531l1.90032959,2.53381348c-7.20587158.91668701-12.81921387,6.95666504-13.07421875,14.34643555ZM23.51965332,14.02630615l-2.26965332-3.02630615,2.23156738-2.97558594c10.65795898.24346924,19.38122559,8.44824219,20.41308594,18.89672852l-2.29455566-1.72094727c-.35546875-.26660156-.84472656-.26660156-1.20019531,0l-2.53381348,1.90032959c-.91668701-7.20587158-6.95666504-12.81921387-14.34643555-13.07421875ZM2,44h20.50012207l2.24987793,3-2.24987793,3H2v-6ZM25.85839844,49.80029297c-.25262451.03601074-.51269531.05505371-.76977539.0814209l1.71118164-2.28161621c.26708984-.35546875.26708984-.84472656,0-1.20019531l-1.90032959-2.53381348c7.20587158-.91668701,12.81921387-6.95666504,13.07421875-14.34643555l3.02630615-2.26965332,2.9776001,2.23309326c-.23760986,10.24047852-7.93493652,18.93139648-18.11920166,20.31719971Z" style="fill:#393e4c; stroke-width:0px;"/><path d="M33,29c0-5.51416016-4.48583984-10-10-10s-10,4.48583984-10,10,4.48583984,10,10,10,10-4.48583984,10-10ZM15,29c0-4.41113281,3.58886719-8,8-8s8,3.58886719,8,8-3.58886719,8-8,8-8-3.58886719-8-8Z" style="fill:#393e4c; stroke-width:0px;"/><circle cx="19" cy="29" r="1" style="fill:#9ac3ef; stroke-width:0px;"/><circle cx="23" cy="29" r="1" style="fill:#9ac3ef; stroke-width:0px;"/><circle cx="27" cy="29" r="1" style="fill:#9ac3ef; stroke-width:0px;"/></svg>