<svg xmlns="http://www.w3.org/2000/svg" fill="none" viewBox="0 0 52 52" id="Server-Api-Cloud--Streamline-Freehand" height="52" width="52">
  <desc>
    Server Api Cloud Streamline Icon: https://streamlinehq.com
  </desc>
  <path fill="#000000" d="M50.5258 16.48283c-0.9061 -2.20025 -2.28865 -4.172285 -4.047983333333333 -5.774188333333333 -1.75955 -1.6019249999999998 -3.852333333333333 -2.793895 -6.127549999999999 -3.4901099999999996 -3.069733333333333 -0.945035 -6.34725 -0.9827133333333333 -9.437999999999999 -0.108485 -2.97505 0.9894299999999999 -5.523483333333333 2.9640216666666666 -7.224749999999999 5.597626666666667 -0.5678833333333333 -0.7310766666666666 -1.2404166666666665 -1.3744249999999998 -1.9961499999999999 -1.9092666666666664 -1.9747216666666667 -1.3413399999999998 -4.344881666666666 -1.9759349999999998 -6.725745 -1.8007816666666667 -1.9406183333333331 0.35942833333333335 -3.7007966666666663 1.3696149999999998 -4.990114999999999 2.8639 -1.1427433333333332 1.2808683333333333 -1.8955083333333334 2.8617116666666664 -2.169635 4.556218333333333 -0.15892499999999998 -0.010833333333333332 -0.31839166666666663 -0.010833333333333332 -0.4773166666666666 0 -0.8394316666666666 0.02760333333333333 -1.6682249999999998 0.19629999999999997 -2.45167 0.4990049999999999 -1.2966416666666667 0.4788766666666666 -2.4269266666666667 1.3228149999999999 -3.254437333333333 2.4299816666666665 -0.8264294999999999 1.10461 -1.349959 2.405953333333333 -1.5187375666666667 3.77507 -0.3696467666666667 2.6546 0.2563747333333333 5.351883333333333 1.7573959 7.572066666666666 0.5214256666666667 0.7455499999999999 1.1255356666666665 1.4297833333333334 1.8007773333333332 2.039483333333333 0.44265 0.41036666666666666 0.9480466666666666 0.7472833333333333 1.4970583333333332 0.9979666666666667 0.09063166666666665 0.053516666666666664 0.19114333333333333 0.08796666666666665 0.2954683333333333 0.10161666666666665 0.10432499999999999 0.013649999999999999 0.21031833333333333 0.006066666666666666 0.3116316666666667 -0.022316666666666665 0.10131333333333334 -0.028383333333333333 0.195845 -0.07691666666666666 0.27793999999999996 -0.14278333333333332 0.082095 -0.06586666666666666 0.15004166666666666 -0.14755 0.19976666666666668 -0.24028333333333332 0.05119833333333333 -0.14516666666666667 0.055705 -0.3026833333333333 0.012913333333333332 -0.45044999999999996 -0.042791666666666665 -0.14776666666666666 -0.13075833333333334 -0.2786333333333333 -0.25157166666666664 -0.37396666666666667 -0.5768533333333332 -0.3263 -1.085175 -0.7609333333333334 -1.4970366666666666 -1.2800666666666665 -0.4140716666666666 -0.49789999999999995 -0.777465 -1.0356666666666665 -1.0848283333333333 -1.6055 -1.0311816666666667 -1.8938833333333331 -1.3760976666666664 -4.086116666666666 -0.9763216666666666 -6.205116666666666 0.16642166666666666 -1.2122499999999998 0.6532499999999999 -2.3582216666666667 1.4102616666666665 -3.3195716666666666 0.501215 -0.63583 1.129245 -1.1604233333333331 1.84418 -1.5404349999999998 0.7259633333333333 -0.38776833333333327 1.5231666666666666 -0.6239783333333333 2.3431849999999996 -0.6942866666666666 0.879645 -0.09726166666666666 1.7673066666666664 -0.09726166666666666 2.6469516666666664 0 0.079885 0.0156 0.16210999999999998 0.014971666666666666 0.24175666666666665 -0.0018416666666666664 0.07966833333333333 -0.016813333333333333 0.15513333333333332 -0.049464999999999995 0.22190999999999997 -0.09602666666666666 0.06677666666666666 -0.04654 0.12354333333333332 -0.10603666666666665 0.16687666666666667 -0.17493666666666666 0.04333333333333333 -0.06892166666666666 0.07238833333333333 -0.14583833333333332 0.08543166666666666 -0.2262 0.009013333333333332 -0.08042666666666666 0.0012999999999999997 -0.16182833333333332 -0.022706666666666663 -0.23911333333333332 -0.024006666666666666 -0.07728499999999999 -0.063765 -0.14876333333333333 -0.11676166666666667 -0.20990666666666663 -0.052996666666666664 -0.061165 -0.11808333333333333 -0.11067333333333333 -0.19118666666666664 -0.145405 -0.07308166666666667 -0.03475333333333333 -0.15257666666666664 -0.05397166666666667 -0.23345833333333332 -0.05646333333333333 -0.5791933333333333 -0.14694333333333334 -1.1658183333333334 -0.26281666666666664 -1.7573833333333333 -0.3471433333333333 0.44063499999999994 -1.2549116666666666 1.186185 -2.3806683333333334 2.1696133333333334 -3.2761299999999998 1.0627066666666667 -1.03779 2.4483983333333335 -1.6808783333333333 3.9270183333333333 -1.8224699999999998 1.0900066666666666 -0.11836499999999998 2.1927099999999995 0.00004333333333333333 3.2327316666666666 0.3471216666666666 1.092455 0.3170266666666667 2.120625 0.8237666666666665 3.0374933333333334 1.4970583333333332 0.6114333333333333 0.40635833333333327 1.12385 0.9448616666666666 1.4993333333333332 1.5757299999999999 0.37548333333333334 0.6308683333333333 0.6045 1.3380033333333332 0.6703666666666667 2.0692316666666666 -0.018199999999999997 0.10293833333333331 -0.013649999999999999 0.20862833333333333 0.013433333333333332 0.30959499999999995 0.027083333333333334 0.10096666666666666 0.07604999999999999 0.1947833333333333 0.14321666666666666 0.27484166666666665 0.06716666666666667 0.08008 0.15101666666666666 0.14445166666666664 0.24591666666666664 0.18863 0.09468333333333333 0.044178333333333326 0.1980333333333333 0.06708 0.30246666666666666 0.06708 0.10464999999999999 0 0.20778333333333332 -0.022901666666666664 0.30246666666666666 -0.06708 0.09489999999999998 -0.044178333333333326 0.17875 -0.10855 0.24591666666666664 -0.18863 0.06716666666666667 -0.08005833333333331 0.11613333333333332 -0.173875 0.14321666666666666 -0.27484166666666665 0.027083333333333334 -0.10096666666666666 0.03163333333333333 -0.20665666666666666 0.013433333333333332 -0.30959499999999995 0.08428333333333332 -1.084655 -0.1495 -2.170328333333333 -0.6725333333333333 -3.124268333333333 0.091 -0.040819999999999995 0.16683333333333333 -0.10911333333333333 0.2171 -0.19526 1.6434166666666665 -2.3336299999999994 4.0546999999999995 -4.01544 6.812433333333333 -4.751478333333333 2.7533999999999996 -0.61984 5.6281333333333325 -0.41613 8.266266666666667 0.5858016666666667 1.9372166666666666 0.631865 3.7154 1.6741833333333334 5.213 3.055801666666666 1.4978166666666666 1.38164 2.679733333333333 3.070058333333333 3.465583333333333 4.950118333333333 1.78815 3.795328333333333 2.1575666666666664 8.105673333333334 1.0415166666666666 12.149973333333334 -0.24829999999999997 0.8625499999999999 -0.598 1.6928166666666666 -1.0415166666666666 2.4732499999999997 -0.42683333333333334 0.7186833333333332 -1.0521333333333331 1.2989166666666667 -1.8007166666666665 1.6707166666666666 -0.16531666666666667 0.08796666666666665 -0.2909833333333333 0.2357333333333333 -0.3514333333333333 0.4129666666666666 -0.06045 0.17723333333333333 -0.05113333333333333 0.3709333333333333 0.026 0.5416666666666666 0.08796666666666665 0.16531666666666667 0.2357333333333333 0.2907666666666667 0.4129666666666666 0.3512166666666666 0.17723333333333333 0.06045 0.3709333333333333 0.05113333333333333 0.5416666666666666 -0.02578333333333333 0.7947333333333333 -0.37071666666666664 1.4982499999999999 -0.9112999999999999 2.06115 -1.5838333333333332 0.7589833333333332 -0.9830166666666665 1.3392166666666665 -2.0921333333333334 1.7138333333333333 -3.2762166666666666 1.5465666666666666 -4.429966666666666 1.3996666666666666 -9.275348333333332 -0.41209999999999997 -13.60350333333333Z" stroke-width="2.1667"></path>
  <path fill="#000000" d="M18.220063333333332 31.9306c-0.14497166666666664 -0.3081 -0.31174 -0.6053666666666666 -0.4990049999999999 -0.8896333333333333 -0.18538 -0.30506666666666665 -0.40364999999999995 -0.5886833333333333 -0.6508883333333333 -0.8460833333333333l-1.2366899999999998 -1.0631833333333334c-0.46546499999999996 -0.3655166666666666 -1.0334133333333333 -0.57655 -1.6246099999999999 -0.60385 -0.5911749999999999 -0.027083333333333334 -1.1761316666666666 0.13086666666666666 -1.6732083333333332 0.4519666666666666 -0.7277399999999999 0.50505 -1.2990466666666665 1.2040166666666665 -1.64892 2.0178166666666666 -0.4479583333333333 0.9914666666666666 -0.7757316666666666 2.0332 -0.9763216666666666 3.1024499999999997 -0.4703616666666666 2.4959999999999996 -0.5654349999999999 5.048116666666666 -0.2820566666666666 7.572066666666666 0 1.1065166666666666 0.303745 2.1697 0.5207149999999999 3.297883333333333 0.00793 0.0819 0.03245666666666667 0.16163333333333332 0.07210666666666665 0.23378333333333332 0.03967166666666666 0.07236666666666666 0.09362166666666666 0.13563333333333333 0.15855666666666665 0.1863333333333333 0.06495666666666666 0.050916666666666666 0.13955499999999998 0.08775 0.219245 0.10876666666666666 0.07971166666666667 0.021016666666666666 0.16284666666666667 0.025566666666666665 0.24435666666666667 0.013433333333333332 0.1650783333333333 -0.026866666666666664 0.3135166666666666 -0.11613333333333332 0.414505 -0.2493833333333333 0.10098833333333332 -0.13324999999999998 0.14679166666666665 -0.30029999999999996 0.12789833333333334 -0.4664833333333333 -0.15576166666666666 -1.0634 -0.23551666666666665 -2.1365499999999997 -0.2386583333333333 -3.2112166666666666 0 -0.7808666666666666 0 -1.5836166666666665 0.108485 -2.3646999999999996 0.580515 0.11006666666666666 1.16753 0.1824333333333333 1.7574049999999999 0.21688333333333332 0.4188166666666666 0.03293333333333333 0.8395616666666667 0.03293333333333333 1.2583783333333334 0 0.419185 0.02145 0.8391933333333332 0.02145 1.2583783333333334 0 0.80977 -0.10269999999999999 1.6136249999999999 -0.2474333333333333 2.4082933333333334 -0.43398333333333333 0.19107833333333332 1.5625999999999998 0.2996933333333333 3.134083333333333 0.3254333333333333 4.708166666666666 0.029184999999999996 0.16574999999999998 0.115895 0.3159 0.24483333333333332 0.4242333333333333 0.12896 0.10811666666666665 0.2919366666666666 0.16748333333333332 0.4602866666666666 0.16748333333333332 0.16837166666666667 0 0.33132666666666666 -0.059366666666666665 0.4602866666666666 -0.16748333333333332 0.12896 -0.10833333333333334 0.2156483333333333 -0.25848333333333334 0.244855 -0.4242333333333333 0.15927166666666667 -2.3646999999999996 0.10844166666666666 -4.738933333333333 -0.15188333333333331 -7.09475 -0.21514999999999998 -1.6148166666666666 -0.6532499999999999 -3.191933333333333 -1.3017766666666666 -4.686283333333333Zm-2.8639 5.206933333333333h-1.2583783333333334c-0.41162333333333334 -0.03141666666666667 -0.8250666666666666 -0.03141666666666667 -1.2366899999999998 0 -0.4608283333333333 0.04615 -0.91767 0.12588333333333332 -1.366863333333333 0.23876666666666665 0 -0.43398333333333333 0.13017333333333334 -0.8896333333333333 0.21697 -1.3234 0.086775 -0.43398333333333333 0.2169483333333333 -0.9981833333333333 0.3471433333333333 -1.4971666666666665 0.24949166666666667 -1.0337166666666666 0.6439333333333334 -2.027133333333333 1.1715816666666667 -2.950566666666666 0.303745 -0.49898333333333333 0.715975 -0.9112999999999999 1.3234866666666667 -0.5208666666666666 1.01972 0.8246333333333332 0.6291783333333333 0.4123166666666666 1.6706083333333333 1.8225999999999998 0.6621116666666665 1.2549333333333335 1.1372183333333332 2.599783333333333 1.41024 3.992083333333333v0.4123166666666666l-2.2780983333333333 -0.17376666666666665Z" stroke-width="2.1667"></path>
  <path fill="#000000" d="M30.369949999999996 28.502499999999998c-1.3288166666666665 -0.21926666666666664 -2.6849333333333334 -0.21926666666666664 -4.01375 0 -0.8675333333333333 0.009099999999999999 -1.7268333333333332 0.17073333333333332 -2.5384666666666664 0.4773166666666666 -0.49789999999999995 0.23335 -0.9136833333333333 0.6114333333333333 -1.1933999999999998 1.08485 -0.18264999999999998 0.31329999999999997 -0.30073333333333335 0.6599666666666666 -0.3471 1.0196333333333334 -0.05394999999999999 0.5774166666666667 -0.05394999999999999 1.1585166666666664 0 1.7357166666666666l0.45564999999999994 4.86005 0.6292 6.660766666666666c0 0.16683333333333333 0.0663 0.32695 0.18438333333333332 0.44481666666666664 0.11786666666666665 0.11808333333333333 0.2779833333333333 0.18438333333333332 0.44481666666666664 0.18438333333333332 0.16683333333333333 0 0.32695 -0.0663 0.44481666666666664 -0.18438333333333332 0.11808333333333333 -0.11786666666666665 0.18438333333333332 -0.2779833333333333 0.18438333333333332 -0.44481666666666664v-6.921199999999999c2.4208166666666666 0.42401666666666665 4.911833333333333 -0.1131 6.942866666666666 -1.4969499999999998 0.4370166666666666 -0.24981666666666666 0.8202999999999999 -0.5832666666666666 1.1277499999999998 -0.9817166666666666 0.30766666666666664 -0.3982333333333333 0.5334333333333333 -0.8534499999999999 0.6645166666666665 -1.3394333333333333 0.13108333333333333 -0.4859833333333333 0.16488333333333333 -0.9929833333333332 0.09923333333333333 -1.4919666666666664s-0.22923333333333332 -0.9802 -0.4812166666666666 -1.4157c-0.2506833333333333 -0.5312666666666667 -0.6131666666666665 -1.0018666666666665 -1.0625333333333333 -1.3801666666666665 -0.44915 -0.37808333333333327 -0.975 -0.6549833333333334 -1.54115 -0.8111999999999999Zm-0.86775 6.313666666666666c-1.4263166666666665 0.8985166666666666 -3.1286666666666663 1.2527666666666666 -4.794833333333333 0.9979666666666667h-0.19543333333333332V31.69183333333333c0.0073666666666666655 -0.1807 0.051783333333333334 -0.3577166666666666 0.13021666666666665 -0.52065 0.10855 -0.17355 0.3254333333333333 -0.19521666666666665 0.52065 -0.23876666666666665 0.4508833333333333 -0.08428333333333332 0.9082666666666667 -0.12783333333333333 1.3669499999999999 -0.12999999999999998 1.0634 -0.17311666666666664 2.1475999999999997 -0.17311666666666664 3.211 0 0.2524166666666667 0.05048333333333333 0.4909666666666666 0.15405 0.7004833333333332 0.30376666666666663 0.20951666666666663 0.1495 0.3848 0.34168333333333334 0.5145833333333333 0.5639833333333333 0.7810833333333332 1.2800666666666665 -0.23876666666666665 2.386583333333333 -1.518833333333333 3.146h0.06521666666666666Z" stroke-width="2.1667"></path>
  <path fill="#000000" d="M44.4509 29.65235c-1.28115 -0.29423333333333335 -2.5909 -0.44698333333333334 -3.9054166666666665 -0.4554333333333333 -0.7273499999999999 0.004333333333333333 -1.453183333333333 0.06954999999999999 -2.1694833333333334 0.19521666666666665 -1.1065166666666666 0.17355 -2.1697 0.4773166666666666 -3.2762166666666666 0.6075333333333333 -0.16315 -0.00021666666666666666 -0.3200166666666666 0.06305 -0.43744999999999995 0.17636666666666664 -0.11743333333333332 0.11353333333333333 -0.18611666666666665 0.2680166666666667 -0.19174999999999998 0.43094999999999994 -0.00585 0.08168333333333332 0.0047666666666666664 0.16358333333333333 0.0312 0.2409333333333333 0.02665 0.07735 0.06846666666666666 0.14841666666666667 0.12306666666666667 0.20929999999999999 0.05481666666666666 0.06066666666666666 0.12111666666666665 0.10985 0.19543333333333332 0.1443 0.0741 0.03445 0.15426666666666666 0.05373333333333333 0.23616666666666666 0.056333333333333326 1.2698833333333333 0.2682333333333333 2.5638166666666664 0.40625 3.8618666666666663 0.4123166666666666h0.6075333333333333c-0.10855 1.2800666666666665 -0.2821 2.560133333333333 -0.3471 3.9054166666666665v6.53055c-0.47406666666666664 0.03315 -0.9453166666666667 0.09836666666666667 -1.4102833333333333 0.19521666666666665 -1.01985 0.23854999999999998 -1.9744833333333331 0.6075333333333333 -3.0374499999999998 0.80275 -0.1443 0.027083333333333334 -0.27429999999999993 0.10378333333333332 -0.36811666666666665 0.21666666666666667 -0.0936 0.11288333333333332 -0.14473333333333332 0.25501666666666667 -0.14473333333333332 0.4017 0 0.1466833333333333 0.05113333333333333 0.28881666666666667 0.14473333333333332 0.4017 0.09381666666666666 0.11288333333333332 0.22381666666666666 0.1895833333333333 0.36811666666666665 0.21666666666666667 0.9418499999999999 0.12631666666666666 1.8921499999999998 0.17701666666666666 2.842016666666667 0.15188333333333331h1.7140499999999999c0.5858666666666665 0 1.5838333333333332 0 2.386583333333333 -0.13021666666666665 0.8593 -0.028383333333333333 1.7153499999999997 -0.12263333333333332 2.560133333333333 -0.2821 0.10313333333333333 0.018199999999999997 0.20864999999999997 0.013433333333333332 0.30961666666666665 -0.013649999999999999 0.10096666666666666 -0.026866666666666664 0.1947833333333333 -0.07583333333333334 0.27495 -0.143 0.07995 -0.06716666666666667 0.14451666666666665 -0.15123333333333333 0.18849999999999997 -0.24591666666666664 0.0442 -0.09468333333333333 0.06716666666666667 -0.1980333333333333 0.06716666666666667 -0.30246666666666666 0 -0.10464999999999999 -0.022966666666666666 -0.20778333333333332 -0.06716666666666667 -0.3026833333333333 -0.043983333333333326 -0.09468333333333333 -0.10855 -0.17853333333333332 -0.18849999999999997 -0.24569999999999997 -0.08016666666666666 -0.06738333333333332 -0.17398333333333332 -0.11613333333333332 -0.27495 -0.14321666666666666 -0.10096666666666666 -0.027083333333333334 -0.2064833333333333 -0.03163333333333333 -0.30961666666666665 -0.013649999999999999 -1.1281833333333333 0 -2.1694833333333334 -0.36876666666666663 -3.38455 -0.49898333333333333 0.20236666666666664 -1.1836499999999999 0.32564999999999994 -2.37965 0.36876666666666663 -3.579766666666666 0 -0.6075333333333333 0.13021666666666665 -1.2150666666666665 0.17355 -1.8225999999999998 0.04355 -0.6075333333333333 0 -1.2148499999999998 0 -1.822383333333333 -0.11396666666666666 -1.1580833333333331 -0.28773333333333334 -2.3096666666666668 -0.52065 -3.4497666666666666h0.17355c1.07575 -0.20128333333333331 2.16255 -0.3390833333333333 3.2545499999999996 -0.4123166666666666 0.1863333333333333 0.012133333333333333 0.3702833333333333 -0.049183333333333336 0.5122 -0.17073333333333332 0.1417 -0.12176666666666666 0.2305333333333333 -0.2940166666666666 0.24721666666666664 -0.4801333333333333 0.012133333333333333 -0.09121666666666665 0.00585 -0.18395 -0.018199999999999997 -0.2727833333333333 -0.02405 -0.08904999999999999 -0.06565 -0.17225 -0.12219999999999999 -0.24483333333333332 -0.056333333333333326 -0.07279999999999999 -0.12696666666666664 -0.13346666666666665 -0.20713333333333334 -0.17875 -0.08016666666666666 -0.045066666666666665 -0.16856666666666664 -0.07388333333333333 -0.25999999999999995 -0.08471666666666666Z" stroke-width="2.1667"></path>
</svg>